<?xml version="1.0" encoding="UTF-8"?>
<svg xmlns="http://www.w3.org/2000/svg" viewBox="0 0 220 120">
  <title>Cloud 2</title>
  <desc>Outlined cartoon cloud variant</desc>
  <path d="M28,82 C14,82 6,72 6,62 C6,52 15,44 24,44 C28,34 40,28 54,30 C62,21 77,18 90,22 C98,18 114,18 122,24 C132,22 140,26 148,34 C164,32 180,40 180,54 C192,56 202,66 202,76 C202,90 188,100 170,100 L44,100 C37,100 32,100 28,99 Z"
        fill="#ffffff" stroke="#1f2937" stroke-width="3" stroke-linejoin="round" stroke-linecap="round"/>
</svg>
