<?xml version="1.0" encoding="UTF-8"?>
<svg xmlns="http://www.w3.org/2000/svg" viewBox="0 0 220 120">
  <title>Cloud 1</title>
  <desc>Outlined cartoon cloud, white fill with dark stroke</desc>
  <path d="M35,78 C20,78 10,68 10,58 C10,48 20,40 30,40 C33,28 45,20 58,22 C65,14 77,10 90,14 C98,11 110,12 118,18 C129,16 139,20 146,28 C162,26 176,36 176,50 C188,52 198,62 198,72 C198,86 184,96 166,96 L46,96 C41,96 38,96 35,95 Z"
        fill="#ffffff" stroke="#1f2937" stroke-width="3" stroke-linejoin="round" stroke-linecap="round"/>
</svg>
